<svg xmlns="http://www.w3.org/2000/svg" xmlns:xlink="http://www.w3.org/1999/xlink" viewBox="0 0 739.83 609.44"><defs><style>.cls-1,.cls-28{isolation:isolate;}.cls-2{fill:#4b4554;}.cls-3{fill:#ddd;}.cls-4{fill:#f7f7f7;}.cls-5{fill:#2c2933;}.cls-6{fill:#fa755a;}.cls-7{fill:#8c4c57;}.cls-8,.cls-9{fill:#fbef00;}.cls-45,.cls-9{opacity:0.5;}.cls-10{fill:#e26652;}.cls-11{fill:#fff;}.cls-12{fill:#2b2c2e;}.cls-13{fill:#feeb8d;}.cls-14{fill:#8c98a4;}.cls-15{fill:#cad5d7;}.cls-16,.cls-25{fill:#84a599;}.cls-17{fill:#ef4b2d;}.cls-18{fill:#7e5c42;}.cls-19{fill:#3e3b44;}.cls-20{fill:#b39dc4;}.cls-20,.cls-44{opacity:0.6;}.cls-20,.cls-44,.cls-45,.cls-48{mix-blend-mode:multiply;}.cls-21{fill:#ad5050;}.cls-22{fill:#cc3e2b;}.cls-23{fill:#e2f1f2;}.cls-24{fill:#fffdf4;}.cls-25{opacity:0.4;}.cls-26{fill:#eb6c1c;}.cls-27{fill:#ffad94;}.cls-28{opacity:0.2;fill:url(#Gradiente_sem_nome_14);}.cls-29{fill:url(#Gradiente_sem_nome_3);}.cls-30{fill:#ffb497;}.cls-31{fill:url(#Gradiente_sem_nome_8);}.cls-32{fill:none;stroke:#fafcfc;stroke-miterlimit:10;}.cls-33{fill:url(#Gradiente_sem_nome_8-2);}.cls-34{fill:url(#Gradiente_sem_nome_9);}.cls-35{fill:url(#Gradiente_sem_nome_10);}.cls-36{fill:url(#Gradiente_sem_nome_12);}.cls-37{fill:url(#Gradiente_sem_nome_12-2);}.cls-38{fill:url(#Gradiente_sem_nome_13);}.cls-39{fill:#4ce59c;}.cls-40{fill:#4a5bd3;}.cls-41{fill:#3ecf8e;}.cls-42{fill:#38343f;}.cls-43{fill:#bcbcbc;}.cls-44{fill:#939393;}.cls-46{fill:#3c93ce;}.cls-47{fill:#55bde5;}.cls-49{opacity:0.2;}.cls-50{fill:#64d6f9;}.cls-51{fill:#ededed;}.cls-52{fill:#38af76;}</style><linearGradient id="Gradiente_sem_nome_14" x1="-5477.79" y1="1191.39" x2="-5260.64" y2="1191.39" gradientTransform="matrix(-0.67, 0.01, 0, 0.56, -2932.77, -11.12)" gradientUnits="userSpaceOnUse"><stop offset="0" stop-color="#030303" stop-opacity="0.3"/><stop offset="1" stop-color="#fff" stop-opacity="0"/></linearGradient><linearGradient id="Gradiente_sem_nome_3" x1="1230.41" y1="1185.77" x2="1237.33" y2="1185.77" gradientTransform="matrix(1, 0, 0, -1, -563.86, 1625.26)" gradientUnits="userSpaceOnUse"><stop offset="0" stop-color="#1d4bac"/><stop offset="0.98" stop-color="#1d4bac"/></linearGradient><linearGradient id="Gradiente_sem_nome_8" x1="653.66" y1="1330.23" x2="693.76" y2="1330.23" gradientTransform="matrix(1, 0, 0, -1, -3.9, 1920.15)" gradientUnits="userSpaceOnUse"><stop offset="0" stop-color="#020b17"/><stop offset="1" stop-color="#1e2833"/></linearGradient><linearGradient id="Gradiente_sem_nome_8-2" x1="619.47" y1="1324.39" x2="659.6" y2="1324.39" xlink:href="#Gradiente_sem_nome_8"/><linearGradient id="Gradiente_sem_nome_9" x1="639.56" y1="1609.36" x2="670.14" y2="1609.36" gradientTransform="matrix(1, 0, 0, -1, -3.9, 1920.15)" gradientUnits="userSpaceOnUse"><stop offset="0" stop-color="#1d2732"/><stop offset="1" stop-color="#1e2833"/></linearGradient><linearGradient id="Gradiente_sem_nome_10" x1="1104.08" y1="1403.4" x2="1174.22" y2="1403.4" gradientTransform="matrix(1, 0.06, 0.06, -1, -635.44, 1716.9)" gradientUnits="userSpaceOnUse"><stop offset="0" stop-color="#ebb7a1"/><stop offset="0.19" stop-color="#f2b797"/><stop offset="0.58" stop-color="#fcb789"/><stop offset="0.9" stop-color="#ffb784"/></linearGradient><linearGradient id="Gradiente_sem_nome_12" x1="1206.12" y1="1292.69" x2="1226.8" y2="1292.69" gradientTransform="matrix(1, 0, 0, -1, -563.86, 1625.26)" gradientUnits="userSpaceOnUse"><stop offset="0" stop-color="#fff"/><stop offset="0.29" stop-color="#fafafa"/><stop offset="0.63" stop-color="#ececec"/><stop offset="0.99" stop-color="#d4d4d4"/><stop offset="1" stop-color="#d4d4d4"/></linearGradient><linearGradient id="Gradiente_sem_nome_12-2" x1="1133.99" y1="1231.3" x2="1139.32" y2="1231.3" xlink:href="#Gradiente_sem_nome_12"/><linearGradient id="Gradiente_sem_nome_13" x1="629.81" y1="1412.75" x2="692.32" y2="1412.75" gradientTransform="matrix(1, 0, 0, -1, -3.9, 1920.15)" gradientUnits="userSpaceOnUse"><stop offset="0" stop-color="#6772e5"/><stop offset="1" stop-color="#6760e5"/></linearGradient></defs><g class="cls-1"><g id="Camada_2" data-name="Camada 2"><g id="Layer_1" data-name="Layer 1"><path class="cls-2" d="M383.7,311.69a2.57,2.57,0,0,1-.55-.06l-73-16.5a2.5,2.5,0,1,1,1.1-4.88l72.46,16.38,65-14.38a2.5,2.5,0,0,1,1.08,4.88l-65.5,14.5A2.48,2.48,0,0,1,383.7,311.69Z"/><rect class="cls-3" x="192.2" y="15.69" width="42" height="567"/><rect class="cls-2" x="219.2" y="91.36" width="10" height="487" rx="3"/><rect class="cls-4" x="188.2" y="15.69" width="25" height="567"/><rect class="cls-2" x="149.37" y="284.94" width="22.7" height="18.19"/><path class="cls-2" d="M229,325.69a1.75,1.75,0,0,0,2,1.78l115.36-12.56a2.3,2.3,0,0,0,2-2.22v-8.33a2,2,0,0,0-2-2H231a2,2,0,0,0-2,2Z"/><rect class="cls-2" x="219.04" y="298.69" width="21.33" height="32.5" rx="5"/><path class="cls-2" d="M222.37,325.69a1.64,1.64,0,0,1-2,1.67L147,315a2.44,2.44,0,0,1-2-2.33v-8.33a2,2,0,0,1,2-2h73.33a2,2,0,0,1,2,2Z"/><path class="cls-5" d="M124.51,346.49H98.87c-17,0-31.17-20.46-34.57-47.74a102.39,102.39,0,0,1-.78-12.67c0-33.37,15.82-60.42,35.35-60.42h24.44l3.13,62.1-1.93,58.73Z"/><g class="cls-1"><path class="cls-5" d="M123.31,225.66c-19.52,0-35.35,27.05-35.35,60.42a102.39,102.39,0,0,0,.78,12.67c3.41,27.28,17.59,47.74,34.57,47.74s31.16-20.46,34.56-47.74a100.48,100.48,0,0,0,.78-12.67c0-33.37-15.82-60.42-35.34-60.42Z"/></g><g class="cls-1"><path class="cls-5" d="M110.53,237.56c-11.47,0-20.78,15.9-20.78,35.52a60,60,0,0,0,.46,7.44c2,16,10.34,28.06,20.32,28.06s18.32-12,20.32-28.06a60,60,0,0,0,.46-7.44c0-19.62-9.3-35.52-20.78-35.52Z"/></g><path class="cls-6" d="M170.38,134.49V151.9a3.94,3.94,0,0,1-.59,2.09,4,4,0,0,1-3.47,2h-30.6a3.75,3.75,0,0,1-.48,0,4.07,4.07,0,0,1-3.58-4V134.49a4.07,4.07,0,0,1,4.06-4.07h30.6a4.07,4.07,0,0,1,4.06,4.07Z"/><polygon class="cls-7" points="225.59 176.53 680.42 176.53 680.42 270.46 416.75 270.46 416.75 284.51 233.83 284.51 233.83 270.46 225.59 270.46 225.59 176.53"/><rect class="cls-7" x="113.9" y="272.48" width="493.53" height="25.54" rx="4.06"/><g class="cls-1"><path class="cls-5" d="M143.77,280.52a60,60,0,0,0,.46-7.44c0-19.62-9.3-35.52-20.78-35.52Z"/><path class="cls-5" d="M123.45,237.56c-11.47,0-20.77,15.9-20.77,35.52a60.07,60.07,0,0,0,.45,7.44Z"/></g><path class="cls-8" d="M441.46,194.62a94.33,94.33,0,0,0-.54-10.19,25.4,25.4,0,0,0,.54-5.31Z"/><path class="cls-8" d="M215.55,89.57a11,11,0,0,0-2.35.28,16,16,0,0,0-8.4,4.82l.73-.9a13.14,13.14,0,0,1,7.67-4.11v-.08s0,0,0,0Z"/><path class="cls-6" d="M570.83,83.22l-1.55.65-44.53,18.65-4.56,1.92L517,105.77l-4.76,2-.93.38-2.38,1-3.28,1.38-11.45,4.79-35.87,15-10,4.2L430.48,142l-7.24,3-10.31,4.32-.33.14a24.73,24.73,0,0,1,11.64,2.67,23,23,0,0,1,4.83,3.37c.39.36.76.72,1.12,1.1a26.45,26.45,0,0,1,2.82,3.44,46,46,0,0,1,6.65,16.44,74.32,74.32,0,0,1,1.26,7.9c-1,4.66-3.24,7.93-5.85,7.93l-7.47,78.1-.08.84q0-.33,0-.84c.31-10.45-.06-78.1-.06-78.1l-134.38.78-4.35,0V285H46.9c-3.52,0-6.39-5.94-6.39-13.22V241.59c0-.28,0-.57,0-.87s0-.6,0-.9c0-.61,0-1.25,0-1.89s0-1,0-1.48c.05-1.37.13-2.79.24-4.24.06-.84.13-1.68.21-2.53,0-.56.11-1.13.17-1.69,0-.37.09-.74.14-1.11,0-.19,0-.38.07-.56l.12-.86c.06-.47.13-.93.21-1.39l0-.2c.06-.39.13-.78.2-1.16s.11-.58.17-.87a3.12,3.12,0,0,1,.09-.44,3,3,0,0,1,.09-.43c0-.11,0-.21.07-.32a4.37,4.37,0,0,1,.12-.52.29.29,0,0,1,0-.09c0-.18.08-.36.13-.54s.06-.25.1-.38a.83.83,0,0,1,0-.15c0-.17.09-.33.13-.49s.09-.32.14-.47c.14-.46.28-.89.43-1.31l7.84-21.88c.06-.17.12-.33.19-.5s0-.13.08-.2a.5.5,0,0,1,0-.13l.05-.12c0-.09.07-.18.1-.26.11-.29.23-.57.35-.85s.37-.85.56-1.26A33.89,33.89,0,0,1,55,187.43c1.86-2.89,3.92-5,5.8-5.67l74.47-25.82,18.51-6.42c1.62-.36,7.88-8.39,15.28-18.06a4.07,4.07,0,0,1,1.35,3v11.93h8.19c-3.62,0-4.79-2.36-2.59-5.24,0,0,5.57-7.28,12.22-15.76,1.3-1.67,2.65-3.38,4-5.09,3.6-4.57,7.26-9.14,10.32-12.84C207.27,101.74,213,94.68,213,94.68l.17-.19a15.83,15.83,0,0,1,10.59-4.92h9.12l.71-.76c9.46-10.19,22-19.13,44.38-21.82H518.88a137.6,137.6,0,0,1,32.48,6.13A73.93,73.93,0,0,1,563.18,78a41.63,41.63,0,0,1,4.22,2.52A28,28,0,0,1,570.83,83.22Z"/><path class="cls-6" d="M278,67c-22.42,2.69-34.92,11.63-44.38,21.82l-.71.76H213.19s0,0,0,0v.08a13.14,13.14,0,0,0-7.67,4.11l-.73.9h0l0,0-.13.16-.25.31-.36.44c-1.71,2.1-6,7.39-9.75,11.88L192.2,110c-1.28,1.56-2.62,3.23-4,5-.43.53-.86,1.07-1.28,1.61L185.79,118q-1.15,1.44-2.28,2.88c-1,1.33-2.1,2.66-3.12,4-2,2.51-3.85,4.92-5.52,7.09l-1.38,1.76c-.17.22-.34.44-.49.65l-.56.71-.39.51-.75,1-.36.46c-.2.25-.39.49-.56.72v-3.26a4.07,4.07,0,0,0-1.35-3c6.11-8,13-17.12,18.66-24l.51-.62c1.34-1.64,2.67-3.33,4-5,3.2-4.08,6.45-8.27,10.17-12.27.23-.26.47-.51.71-.76l.23-.24c.4-.42.81-.84,1.22-1.25l1.26-1.23.87-.82c.58-.54,1.17-1.08,1.78-1.59q.41-.36.81-.69a1.51,1.51,0,0,1,.2-.17c.28-.24.57-.47.86-.7s.73-.59,1.11-.87c.67-.52,1.35-1,2.06-1.52l.61-.43c.39-.27.79-.54,1.2-.8s.77-.5,1.17-.75l.66-.4,1.1-.65c.5-.29,1-.57,1.52-.84s1.19-.64,1.8-.94l1.3-.63c.67-.31,1.36-.62,2.06-.92l1.33-.55,1.15-.45.22-.08,1.22-.44,1.36-.47c.68-.23,1.38-.44,2.09-.65l1.16-.34,1.49-.4,1.62-.4c.48-.12,1-.23,1.46-.33l1.49-.31.11,0c.53-.11,1.06-.21,1.61-.3,2.27-.41,4.65-.75,7.16-1l1.92-.19q2.24-.19,4.59-.3c1.15-.06,2.33-.1,3.53-.12q1.41,0,2.88,0Z"/><path class="cls-9" d="M203.07,88.81l.24-.24-.23.24Z"/><path class="cls-6" d="M551.36,70.86v18H233.62c9.46-10.19,22-19.13,44.38-21.82H518.58C524.83,67.14,545.13,68.34,551.36,70.86Z"/><path class="cls-6" d="M457.4,66.17a123.71,123.71,0,0,0-14.6.82c-22.42,2.69-34.92,11.63-44.39,21.82l-.71.76c-5.12,5.64-9.38,11.62-13.91,17.1-.83,1-1.69,2.06-2.56,3.15-4.72,5.87-10,12.84-14.9,19.25-2,2.63-3.94,5.15-5.74,7.47-2.72,3.5-5.13,6.52-7,8.68-.38.44-.73.84-1.07,1.2a8.45,8.45,0,0,1-2.66,2.28l-80.26,27.83-12.72,4.41c-2,.77-4.32,3.17-6.31,6.49a37.2,37.2,0,0,0-3.08,6.56l-21.89,3.07-15.06,2.11L105.25,213.93l-5,.71-3.36.47-5.51.77a54.46,54.46,0,0,0-2.39,12.2c-.46,4.48-.64,9.06-.64,12.68V270.9a27.65,27.65,0,0,0,.28,3.9,22,22,0,0,0,1.68,6.05c1.11,2.42,2.62,4,4.27,4.1H78.05c-3.18-.18-5.79-5.88-6.18-12.39,0-.55-.05-1.1-.05-1.66V240.76a125.74,125.74,0,0,1,.77-13.85,51.41,51.41,0,0,1,2.26-11l7.78-21.71.06-.18a37.2,37.2,0,0,1,3.08-6.56c2-3.32,4.26-5.72,6.31-6.49l72-25,5.7-2,15.27-5.29a8.45,8.45,0,0,0,2.66-2.28c.16-.17.32-.34.48-.53,1.13-1.25,2.48-2.88,4-4.77,5.69-7.1,13.73-18,21-27.22,2-2.57,4-5,5.8-7.23,4.53-5.48,8.79-11.46,13.91-17.1l.71-.76c9.46-10.19,22-19.13,44.38-21.82a123.71,123.71,0,0,1,14.6-.82Z"/><path class="cls-10" d="M293.11,193.15l-4.35,0V285H46.9c-3.52,0-6.39-5.95-6.39-13.23V241.59c0-7.28.71-18.44,3-24.88l7.84-21.89A37,37,0,0,1,55,187.44H293.11Z"/><g class="cls-1"><path class="cls-5" d="M351.66,346.49H326c-17,0-31.16-20.46-34.57-47.74a102.39,102.39,0,0,1-.78-12.67c0-33.37,15.82-60.42,35.35-60.42h24.44l3.13,62.1-1.92,58.73Z"/><path class="cls-5" d="M606.16,225.66c-19.53,0-35.35,27.05-35.35,60.42a102.39,102.39,0,0,0,.78,12.67c3.4,27.28,17.59,47.74,34.57,47.74h24l3.72-120.83Z"/></g><path class="cls-11" d="M603.33,152.18v-23S597.26,97,588.86,85c-1.93-2.76-3.94-4.45-6.84-4.45H473.14l-.5.26-1.2-.39h0c-1.28,0-8.14.54-16.94,11.19-3.8,4.59-42.89,53.66-48.82,60.6Z"/><path class="cls-12" d="M99.62,218.52a6.91,6.91,0,0,0,7,8.15H221.06a8.27,8.27,0,0,0,8.24-8.24v-11a8.27,8.27,0,0,0-8.24-8.24H110.76a9.9,9.9,0,0,0-9.46,8.15Z"/><polygon class="cls-13" points="511.75 278.26 496.64 278.26 496.64 150.9 491.71 78.9 506.79 77.87 511.75 150.39 511.75 278.26"/><g class="cls-1"><path class="cls-2" d="M350.45,225.66c-19.52,0-35.35,27.05-35.35,60.42a102.39,102.39,0,0,0,.78,12.67c3.41,27.28,17.59,47.74,34.57,47.74S381.61,326,385,298.75a102.41,102.41,0,0,0,.77-12.67c0-33.37-15.82-60.42-35.34-60.42Z"/></g><g class="cls-1"><path class="cls-2" d="M633.88,225.66c-19.52,0-35.35,27.05-35.35,60.42a102.39,102.39,0,0,0,.78,12.67c3.41,27.28,17.59,47.74,34.57,47.74S665,326,668.45,298.75a102.39,102.39,0,0,0,.78-12.67c0-33.37-15.83-60.42-35.35-60.42Z"/></g><g class="cls-1"><path class="cls-14" d="M350.86,247.23c-12.55,0-22.73,17.39-22.73,38.85a67.56,67.56,0,0,0,.5,8.15c2.2,17.54,11.32,30.69,22.23,30.69s20-13.16,22.23-30.7a65.34,65.34,0,0,0,.5-8.15c0-21.45-10.17-38.84-22.73-38.84Z"/><path class="cls-15" d="M374.93,284.51a64.1,64.1,0,0,0-1.38-12,49.16,49.16,0,0,0-5.45-14.56c-4.4-7.53-10.29-11.78-16.63-12h-.61c-10.42,0-19.32,11.11-22.66,26.61a63.32,63.32,0,0,0-1.4,12c0,.52,0,1,0,1.56a67.34,67.34,0,0,0,.51,8.32c.16,1.24.34,2.45.56,3.63,3.07,16.81,12.24,28.25,23,28.25a11.8,11.8,0,0,0,1.46-.08c10.14-1,18.62-12.12,21.55-28.17.22-1.18.41-2.39.56-3.63a67.09,67.09,0,0,0,.52-8.32C375,285.55,374.94,285,374.93,284.51Zm-2.69,1.56a65.51,65.51,0,0,1-.49,8c-.17,1.36-.38,2.68-.64,4-2.73,14.17-10.16,24.34-18.7,25.43a10,10,0,0,1-1.55.11,11.46,11.46,0,0,1-1.94-.16C340.55,322,333.3,312,330.62,298c-.26-1.29-.47-2.61-.64-4a63.68,63.68,0,0,1-.49-8c0-.52,0-1,0-1.56a62,62,0,0,1,1.44-12c2.87-12.94,9.74-22.41,17.93-23.74a11.84,11.84,0,0,1,2-.16l.75,0c5.3.33,10.3,4.09,14.16,10.68a46,46,0,0,1,5,13.2,61.31,61.31,0,0,1,1.44,12C372.23,285,372.24,285.55,372.24,286.07Z"/></g><path class="cls-13" d="M279.09,66.17h3.73A12.48,12.48,0,0,0,279.09,66.17Z"/><path class="cls-16" d="M215.55,89.57a11,11,0,0,0-2.35.28,16,16,0,0,0-8.4,4.82l.73-.9a13.14,13.14,0,0,1,7.67-4.11,7.88,7.88,0,0,1,1.17-.09Z"/><path class="cls-16" d="M169.87,138.42q.23-.31.51-.66v8.66h-1.22c-3,0-3.94-1.94-2.13-4.3l.55-.71s0,0,0,0l.17-.23a.24.24,0,0,1,.06-.09c.07-.09.17-.23.31-.4s.16-.22.27-.35a3.14,3.14,0,0,1,.25-.32l.41-.54a1.25,1.25,0,0,1,.15-.19C169.42,139,169.64,138.72,169.87,138.42Z"/><path class="cls-16" d="M424,93.78l-.58.72-.16.2L423,95c0,.05-.09.1-.13.16l-1.1,1.36-.44.53-.3.37c-.32.38-.65.79-1,1.22-1.87,2.3-4.32,5.3-6.59,8s-4.93,6-7.61,9.4c-.39.48-.77,1-1.16,1.46s-.77,1-1.14,1.44-.77,1-1.15,1.45L401,122.13c-3.66,4.64-7.15,9.11-9.83,12.56-.14.18-.28.35-.4.52-.44.57-.85,1.1-1.24,1.59l-.59.77-1.54,2-.28.36,0,0-.51.66-.4.53,0,0-.12.15-.6.78a12.42,12.42,0,0,1-8.72,4.3H178.57c-3.62,0-4.79-2.36-2.59-5.24,0,0,5.57-7.28,12.22-15.76,1.3-1.67,2.65-3.38,4-5.09,3.6-4.57,7.26-9.14,10.32-12.84C207.27,101.74,213,94.68,213,94.68l.17-.19a15.83,15.83,0,0,1,10.59-4.92H422C424.93,89.57,425.84,91.46,424,93.78Z"/><path class="cls-17" d="M277.55,215.88,285.39,194c2.34-6.53,6.15-11.85,9.39-13.06l93-32.24c3-.66,21.44-26.91,33.94-42,14.63-17.68,26.37-40.5,73.61-40.5h80.48c14.23,0,18.74,4.51,31.4,16.23l55.91,66.29c28.29,0,28.86,37.83,28.86,45.1v63.79c0,7.28-2.88,13.24-6.39,13.24H678l-2,0c0-.38,0-.76,0-1.14,0-40.47-19.53-73.39-43.54-73.39s-43.55,32.92-43.55,73.39c0,1.54.09,3.37.09,5.32,0,6.31.81,9.92-10.46,9.92H400.17c-6.46,0-7.59-3.06-7.59-14.25,0-.37,0-.73,0-1.1,0-.18,0-.36,0-.54,0-40-19.32-72.57-43.06-72.57s-43,32.55-43,72.57v1.64c0,13.59-1.68,14.26-8.48,14.26H280.91c-5.3,0-6.39-6.78-6.39-14.06V240.77C274.52,233.48,275.23,222.33,277.55,215.88Z"/><path class="cls-18" d="M438.17,106.67C446.05,97.15,459.6,78,476.62,78h96.91c4.51,0,8.84,2.8,10.58,4.4,0,0,8.11,10.22,17.81,21.5s7.92,19.94,7.92,19.94v21.83s.54,11.12-9.35,11.12H434.36c-17.61,0-29.25-7.41-29.25-7.41C411.86,141.62,428.31,118.59,438.17,106.67Z"/><path class="cls-12" d="M430.48,149.38H405.11c5.19-6,16.12-21,25.37-33Z"/><path class="cls-18" d="M223.79,89.57a15.83,15.83,0,0,0-10.59,4.92l-.17.19s-5.76,7.06-10.51,12.81c-3.06,3.7-6.72,8.27-10.32,12.84-1.35,1.71-2.7,3.42-4,5.09C181.55,133.9,176,141.18,176,141.18c-2.2,2.88-1,5.24,2.59,5.24h-8.19v-8.67c.17-.23.36-.47.56-.72l.36-.46.75-1,.39-.51.56-.71c.15-.21.32-.43.49-.65l1.38-1.76c1.67-2.17,3.55-4.58,5.52-7.09,1-1.31,2.07-2.64,3.12-4q1.13-1.44,2.28-2.88l1.13-1.42c.42-.54.85-1.08,1.28-1.61,1.38-1.73,2.72-3.4,4-5l2.08-2.54c3.71-4.49,8-9.78,9.75-11.88l.36-.44.25-.31.13-.16,0,0h0a16,16,0,0,1,8.4-4.82,11,11,0,0,1,2.35-.28Z"/><path class="cls-18" d="M169.87,138.42q.23-.31.51-.66v8.66h0c-3.52,0-4.73-2.24-2.75-5,0,0,0,0,0,0a.94.94,0,0,1,.12-.18l0-.05a.24.24,0,0,1,.06-.09c.07-.09.17-.23.31-.4s.16-.22.27-.35a3.14,3.14,0,0,1,.25-.32l.41-.54a1.25,1.25,0,0,1,.15-.19C169.42,139,169.64,138.72,169.87,138.42Z"/><path class="cls-14" d="M456.57,130.36c-3.43,0-2.83-3.63-2.83-3.63l.22-5s1.93-6.59-7.76-17.87q-1.51-1.75-3-3.47C451.29,90.59,462.81,78,476.62,78h96.91c4.51,0,8.84,2.8,10.58,4.4,0,0,8.11,10.22,17.81,21.5s7.76,19.94,7.76,19.94l.07,6.52Z"/><path class="cls-18" d="M585.28,83.87H460c5-3.49,10.61-5.87,16.6-5.87h96.91c4.51,0,8.84,2.8,10.58,4.4Z"/><path class="cls-17" d="M515.63,163.8c0-57.27-12.64-90.09-12.64-90.09h14.42s12.64,32.82,12.64,90.09c0,34-8.58,19.38-15.54,8.59C515.22,168.44,515.63,171.2,515.63,163.8Z"/><path class="cls-18" d="M506.09,78c2.94,9.45,9.5,41.62,10.91,78.79h-7c-1.42-37.17-8-69.34-10.92-78.79Z"/><path class="cls-18" d="M604.08,138.25l-.17-14.41s1.94-8.66-7.76-19.94-17.81-21.5-17.81-21.5c-1.73-1.6-6.07-4.4-10.58-4.4h5.77c4.51,0,8.84,2.8,10.58,4.4,0,0,8.11,10.22,17.81,21.5s7.76,19.94,7.76,19.94l.16,14.41s.54,11.13-9.35,11.13h-5.76C604.61,149.38,604.08,138.25,604.08,138.25Z"/><path class="cls-18" d="M355.24,138.25l-.17-14.41s1.94-8.66-7.76-19.94c-4.59-5.34-8.82-10.44-12-14.33h85.48c3.63,0,4.73,2.31,2.45,5.13,0,0-5.24,6.49-9.78,12C403,119.28,386.19,141.2,386.19,141.2a15.17,15.17,0,0,1-10.61,5.22H352.76C355.47,143.13,355.24,138.25,355.24,138.25Z"/><rect class="cls-19" x="228.06" y="242.9" width="37.08" height="29.66" rx="4.74"/><rect class="cls-19" x="97.87" y="242.9" width="119.48" height="34.61" rx="4.74"/><rect class="cls-19" x="50.08" y="242.9" width="37.08" height="29.66" rx="4.74"/><rect class="cls-11" x="124.24" y="247.02" width="75.81" height="20.6" rx="1.35"/><path class="cls-18" d="M275.37,89.57h16.07a304.58,304.58,0,0,0-7.64,56.85H267.73A305.44,305.44,0,0,1,275.37,89.57Z"/><path class="cls-18" d="M423.23,94.7s-5.24,6.49-9.78,12C403,119.28,386.19,141.2,386.19,141.2a11.64,11.64,0,0,1-2,2,15.28,15.28,0,0,0,.74-4.94l-.16-14.41s1.93-8.66-7.76-19.94c-4.59-5.34-8.83-10.44-12-14.33h55.82C424.41,89.57,425.51,91.88,423.23,94.7Z"/><path class="cls-20" d="M103.64,242.9H211.58a5.79,5.79,0,0,1,5.77,5.77v5.76a5.78,5.78,0,0,0-5.77-5.76H110.44v23.07a5.78,5.78,0,0,0,5.77,5.76h-6.6a5.77,5.77,0,0,1-5.76-5.76V248.67h-.21a5.78,5.78,0,0,0-5.77,5.76v-5.76A5.79,5.79,0,0,1,103.64,242.9Z"/><path class="cls-20" d="M56.13,242.9H81.67a5.79,5.79,0,0,1,5.77,5.77v5.76a5.78,5.78,0,0,0-5.77-5.76H62.92v18.12a5.79,5.79,0,0,0,5.77,5.77H62.1a5.79,5.79,0,0,1-5.77-5.77V248.67h-.2a5.78,5.78,0,0,0-5.77,5.76v-5.76A5.78,5.78,0,0,1,56.13,242.9Z"/><path class="cls-20" d="M233.83,242.9h25.54a5.79,5.79,0,0,1,5.77,5.77v5.76a5.78,5.78,0,0,0-5.77-5.76H240.63v18.12a5.78,5.78,0,0,0,5.76,5.77H239.8a5.79,5.79,0,0,1-5.77-5.77V248.67h-.2a5.78,5.78,0,0,0-5.77,5.76v-5.76A5.79,5.79,0,0,1,233.83,242.9Z"/><path class="cls-21" d="M102.82,242.9h6.59a5.79,5.79,0,0,0-5.77,5.77v23.07a5.78,5.78,0,0,0,5.77,5.76h-6.59a5.78,5.78,0,0,1-5.77-5.76V248.67A5.78,5.78,0,0,1,102.82,242.9Z"/><path class="cls-21" d="M233,242.9h6.6a5.78,5.78,0,0,0-5.77,5.77v18.12a5.78,5.78,0,0,0,5.77,5.77H233a5.78,5.78,0,0,1-5.76-5.77V248.67A5.78,5.78,0,0,1,233,242.9Z"/><path class="cls-21" d="M55.85,242.9h6.59a5.79,5.79,0,0,0-5.77,5.77v18.12a5.79,5.79,0,0,0,5.77,5.77H55.85a5.79,5.79,0,0,1-5.77-5.77V248.67A5.79,5.79,0,0,1,55.85,242.9Z"/><path class="cls-21" d="M96.33,218.52,98,207.32a9.91,9.91,0,0,1,9.46-8.15h8.24a9.91,9.91,0,0,0-9.46,8.15l-1.67,11.2a6.89,6.89,0,0,0,7,8.15h-8.24A6.89,6.89,0,0,1,96.33,218.52Z"/><path class="cls-12" d="M353.82,126.77a35.09,35.09,0,0,1,29.89,16.75,15.21,15.21,0,0,1-8.13,2.9H375a26.16,26.16,0,0,0-42.29,0H322.32A35.12,35.12,0,0,1,353.82,126.77Z"/><path class="cls-6" d="M395.15,156.94c-1.41,1.73-.74,3.15,1.49,3.15h51.48a4.08,4.08,0,0,0,4.06-4.06V138.61a4.07,4.07,0,0,0-4.06-4.06h-30.6a9.75,9.75,0,0,0-6.64,3.14Z"/><polygon class="cls-17" points="415.1 130.43 432.13 161.05 389.28 161.05 406.31 131.39 415.1 130.43"/><path class="cls-22" d="M523.45,278.58a1.7,1.7,0,0,1-1.69-1.7V163.8c0-56.24-12.4-89.16-12.52-89.48a1.69,1.69,0,0,1,3.16-1.22c.13.33,12.75,33.77,12.75,90.7V276.88A1.7,1.7,0,0,1,523.45,278.58Z"/><path class="cls-15" d="M346.74,247.87c-10.58,3.32-18.61,19.16-18.61,38.21a67.56,67.56,0,0,0,.5,8.15c1.91,15.27,9.08,27.22,18.11,30,9-2.83,16.2-14.78,18.11-30.06a65.34,65.34,0,0,0,.5-8.15C365.35,267,357.33,251.19,346.74,247.87Z"/><path class="cls-23" d="M354.16,260.28c-7.15,2.24-12.57,12.93-12.57,25.8a44.63,44.63,0,0,0,.34,5.5c1.29,10.32,6.13,18.39,12.23,20.3,6.1-1.91,10.94-10,12.23-20.3a44.89,44.89,0,0,0,.33-5.5C366.72,273.21,361.31,262.52,354.16,260.28Z"/><g class="cls-1"><path class="cls-14" d="M634.86,247.23c-12.56,0-22.73,17.39-22.73,38.85a65.58,65.58,0,0,0,.5,8.15c2.19,17.54,11.31,30.69,22.23,30.69s20-13.16,22.23-30.7a67.31,67.31,0,0,0,.5-8.15c0-21.45-10.18-38.84-22.73-38.84Z"/><path class="cls-15" d="M657.07,270.46a47.6,47.6,0,0,0-5-12.54c-4.55-7.77-10.67-12.05-17.24-12.05a14.35,14.35,0,0,0-1.61.09c-9.27,1-17.13,10.85-20.58,24.5a63.16,63.16,0,0,0-1.9,15.61,69.09,69.09,0,0,0,.51,8.32c2.07,16.52,9.82,28.66,19.52,31.32a15,15,0,0,0,4.06.56c11.53,0,21.22-13.11,23.57-31.88a67.34,67.34,0,0,0,.51-8.32A64.13,64.13,0,0,0,657.07,270.46Zm-1.33,23.59c-2.13,17.1-10.92,29.51-20.88,29.51a11.46,11.46,0,0,1-1.94-.16,12.31,12.31,0,0,1-2-.51c-8.26-2.78-15.07-14.06-16.92-28.84a65.39,65.39,0,0,1-.49-8,61.66,61.66,0,0,1,1.95-15.61c3.11-11.9,9.68-20.46,17.45-21.72l.29,0a11.9,11.9,0,0,1,1.69-.12c5.57,0,10.86,3.8,14.9,10.7a44.11,44.11,0,0,1,4.51,11.18,60.9,60.9,0,0,1,2,15.61A63.68,63.68,0,0,1,655.74,294.05Z"/></g><path class="cls-15" d="M630.74,247.87c-10.59,3.32-18.61,19.16-18.61,38.21a65.58,65.58,0,0,0,.5,8.15c1.91,15.27,9.08,27.22,18.11,30,9-2.83,16.2-14.78,18.11-30.06a67.31,67.31,0,0,0,.5-8.15C649.35,267,641.32,251.19,630.74,247.87Z"/><rect class="cls-19" x="477.72" y="168.19" width="34.61" height="14.01" rx="2.71"/><rect class="cls-19" x="447.87" y="240.86" width="129.33" height="7.01" rx="2.71"/><rect class="cls-19" x="681.87" y="240.86" width="13.33" height="7.01" rx="2.71"/><rect class="cls-19" x="572.92" y="168.19" width="34.61" height="14.01" rx="2.71"/><path class="cls-23" d="M638.43,260.28c-7.15,2.24-12.57,12.93-12.57,25.8a44.63,44.63,0,0,0,.34,5.5c1.29,10.32,6.13,18.39,12.23,20.3,6.1-1.91,10.94-10,12.23-20.3a44.89,44.89,0,0,0,.33-5.5C651,273.21,645.58,262.52,638.43,260.28Z"/><path class="cls-24" d="M292.32,194.12h-36c-6.31,0-11.32,2.34-13.32,10.65-2.2,9.2-2.51,10-3.89,15.26-1.12,4.33.53,6.87,5.06,6.87h36.32c11,0,12.78-2,16.48-15.87S301.39,194.12,292.32,194.12Z"/><path class="cls-24" d="M81.33,194.13H51.65c-.09.23-.19.45-.27.69l-7.84,21.89a49.5,49.5,0,0,0-2.16,10.17c1.18,0,2.41,0,3.72,0H76.19c4.53,0,7.52-2.54,8.68-6.87,1.42-5.29,1.52-6.06,4.17-15.26C91.42,196.47,87.65,194.13,81.33,194.13Z"/><path class="cls-25" d="M292.32,194.12h-6.91l-7.59,21.17a54.4,54.4,0,0,0-2.33,11.61h5c11,0,12.78-2,16.48-15.87S301.39,194.12,292.32,194.12Z"/><rect class="cls-26" x="401.64" y="193.73" width="18.13" height="13.18" rx="4.06"/><path class="cls-26" d="M679.08,181.92v17.31a8.27,8.27,0,0,0,8.24,8.24H692V193.79a86,86,0,0,0-2.27-20.11h-2.36A8.27,8.27,0,0,0,679.08,181.92Z"/><polygon class="cls-27" points="658.2 323.83 661.05 331.57 649.82 337.99 646.78 332.81 650.25 326.32 657.47 320.2 658.2 323.83"/><path class="cls-28" d="M594.34,603.21c-.05-3.86,32.54-7.46,72.7-7.93s72.74,2.24,72.79,6.17-32.54,7.46-72.7,7.93S594.34,607.14,594.34,603.21Z"/><polygon class="cls-29" points="666.55 387.73 666.77 491.74 673.47 491.74 673.47 387.24 666.55 387.73"/><polygon class="cls-30" points="672.45 581.11 672.45 586.31 683.11 587.02 682.85 581.11 672.45 581.11"/><path d="M649.78,586.44a7.1,7.1,0,0,0,2,5.84c2.5,2.7,6.74,3.67,25.5,6.17a13.22,13.22,0,0,0,1.54.19s11.94,2.12,11.49-3.15c-.49-5.77-4.37-1.15-4.37-1.15s-21.51.77-28.38-1.55a11,11,0,0,1-4.94-6.38"/><path class="cls-31" d="M670.78,582.6s-7.51,1-8.74,1.09-11.87-.7-12.27,2.76,6.1,7.52,10.86,8.1,11,1.09,12.71,1.21,10.92,2.25,13.1,1.16,5.85.9,1.09-14.12a22.42,22.42,0,0,1-7.12,2.05C676.3,585.05,670.78,582.6,670.78,582.6Z"/><path class="cls-32" d="M669.75,587.92c-3.21-4.3,2.5-5.59,2.5-5.59"/><path class="cls-32" d="M667.57,588c-2.51-4.41,3.27-6.61,3.27-6.61"/><polygon class="cls-30" points="641.12 587.61 641.12 591.95 651.46 592.91 651.46 587.29 641.12 587.61"/><path d="M615.58,592.26a7.26,7.26,0,0,0,2,5.89c2.56,2.68,6.77,3.64,25.53,6.19.51.09,1,.16,1.53.2,0,0,12,2.16,11.49-3.2-.5-5.8-4.42-1.14-4.42-1.14s-21.57.76-28.4-1.6a11,11,0,0,1-5-6.38"/><path class="cls-33" d="M636.65,588.44s-7.53,1-8.74,1.08-11.87-.7-12.32,2.74,6.13,7.47,10.85,8.11,11,1.08,12.77,1.21,11,2.23,13.08,1.21,5.89.9,1.08-14.1a21,21,0,0,1-7.15,2C642.14,590.86,636.65,588.44,636.65,588.44Z"/><path class="cls-32" d="M635.57,593.73c-3.19-4.34,2.49-5.61,2.49-5.61"/><path class="cls-32" d="M633.46,593.86c-2.49-4.42,3.32-6.64,3.32-6.64"/><path class="cls-30" d="M635,331.77s-1.37-1.37-1.13-2.7,1.28-3.68,1.13-4.41a10.37,10.37,0,0,1-.29-2.6c.1-.5.54-2.07.29-2.36s-.8-1.07-.8-1.07a3.11,3.11,0,0,1,.16-3.22,3.85,3.85,0,0,0,1.08-2,4.91,4.91,0,0,0,0-2.8,7.4,7.4,0,0,1,.09-4,23.92,23.92,0,0,1,2.07-3.29L654,301.93l3.33,6.28.89,12.27v2.65s-2.55-.42-9.42,8c0,0-2.51,5.43-2.51,5.83s1.13-2.31-2-2S635,331.77,635,331.77Z"/><path class="cls-34" d="M639.4,305.9c.44-.88-1.86-.39-2.35-.29s-1.38.39-1.38,0-.24-4,1.87-6,3.07-2.21,4.06-2.11c0,0,1-1.72,1.76-1.67a12.65,12.65,0,0,0,3.88,0,29.56,29.56,0,0,1,5.3-.59,16.41,16.41,0,0,1,5.6,1.67c2.4,1.13,4.51,2.36,5.89,4.71a13.58,13.58,0,0,1,2.21,7.17c0,2.7-1.94,12.38-4,14.94-1.92,4.71-8.15,1.9-8.59,1.36s-2.31-3.43-2.16-4.85.71-3.79.07-4.83-2.95-5.2-6.63-.58c0,0-2.3,6.08-2.89,2.4s-.94-5.3-1.62-6S638.65,307.47,639.4,305.9Z"/><path d="M666.5,307.42c.19-5.79-2.07-12.66-7.12-14.13a32.53,32.53,0,0,1-4.12-1.23c0-.14.07,0,.08-.11a15,15,0,0,1-3.57-1.26.92.92,0,0,0-1.12.38h0c0-.09-.56-.17-.6-.26-.19-.41-.28-.46-.53-.09h0c-.17-.34-1,.65-1.14.29a1.62,1.62,0,0,0-2.14-.61l-.55.28h0c-.37-.29-.59.39-.52-.07h-1.76c-.58,0-2.46.56-2.66,1.1-.67,1.63-.46,1-1.14,2.69l0-.24a.5.5,0,0,0-.55-.42.48.48,0,0,0-.39.31,8,8,0,0,0-.35,5.75,10.11,10.11,0,0,0,1.37,2.06.58.58,0,0,0,.54.2l10.31-1.18c1.57-.2,3.19-.34,4.76-.54v.15c-3.53.68-7.07,1.42-10.6,2.11-.49.1-.69.34-.79.93-.34,2-.78,3.93-1.13,5.79h0a21.63,21.63,0,0,1,2.31,1.72h0a4.38,4.38,0,0,1,1.13,2l-.79-.24c.89-.05,2.12-1.33,3-1.13.29,0,1.37-.05,1.27,1.08.25-.15.59.24.84.15h0a8.58,8.58,0,0,1,1-2.31,12.42,12.42,0,0,1,4.86,1.47h0a15.42,15.42,0,0,1,6,1.87c1.32.63,2,.54,2.7-.89A11.45,11.45,0,0,0,666.5,307.42Z"/><path d="M642.05,316.75h0c-.1.88.64,1.86-2.21,6.13-3.24,4.86-3.87,1.38-4.12,0s-.2-3.38-.59-3.43-1.57.1-1.52,1.72,1.57,2.6,1.42,3.43,0,.2,0,.2-1.13,1-1.42,3.88,3.78,6.28,4.86,6.28,3.43.39,4.47.24,2.89-.39,3.28.05.54-3.73,1.08-5.3,1.62-3.68,1.48-4.86-3.68-5.4-3.14-8.1a25,25,0,0,1,1-3.48,1.61,1.61,0,0,1,.39-.74"/><path class="cls-35" d="M620.65,371.23c-4.24.35-14.95,13.94-14.95,13.94l-16,4.2L564.3,390c-.92-.25-5.12-2.54-7.16-2.85a13.29,13.29,0,0,0-2.23-.14,3.45,3.45,0,0,0-2.38.35,3,3,0,0,0-.52.49l-.62,1.37c-.07.49-.78.75-1.09,1.12a4.42,4.42,0,0,0-.61,2c-.11.61-.42,1.3-.6,1.93-.06.19.08.34.17.54s.06.65.15.71a3.24,3.24,0,0,1,.91,1.1c.09.2.66.35.86.49.42.32,1.67-.2,2.18-.32.89-.19,1.35-.44,2.24-.63,1.25-.28,4,.67,5.24.4a14.43,14.43,0,0,0,2.87-.33c.34,1,5.61.82,6.77,1.18,2.36.77,22.49-8.25,26.3-10.31s10.57-1,12.21-3.87"/><path class="cls-36" d="M659.67,328.48a27.35,27.35,0,0,0-7.48,1.8,50.94,50.94,0,0,0-5.43,2.46h0c0,.38-.12.86-.21,1.27h0a.25.25,0,0,1,0,.17c0,.13-.06.26-.1.38.06.38.82-.23.84-.23,1,.36.7,1.61,1.47,2.33a1.09,1.09,0,0,0,.08-.15c.89-1.82,5.26-4,5.26-4,6.43-3.14,8.84.05,8.84.05C662.27,330.09,660.8,328.57,659.67,328.48Z"/><polygon class="cls-37" points="570.12 388.86 573.95 388.12 575.47 399.11 571.3 399.8 570.12 388.86"/><path class="cls-38" d="M637.07,588.2s-1.3-13.25-2.51-19.28-3.32-31.54-3-36c.36-4.67-.87-16.55-1.35-18.72s-9.81-77.36.52-87.07c1-1,3.09.68,4.46.63q9.66-.41,19.34-.75c9.88-.35,15.22-.64,25.08-.07,1.16.06,3.38,12.11,3.68,13.33,1.31,5.35-.39,17.67-.88,23.11-1,11.58-1.64,16.38-.49,28,.44,4.34.29,8.7,1.35,12.94,4.91,19.73,6,40.1,4.51,60.23-.25,3.43.64,12.39-1.24,15.15-1.48,2.15-1.13,1.78-4.1,2-.87.07-12.58,1.09-12.58,1s.85-13.86.61-17.47-7.62-45.07-8.34-54c-.75-9.5-7-32.09-7-32.09s-1.82,10.25-1.58,34.85,2,45.71,1.69,53.19,1.47,20.93,1.47,20.93Z"/><path class="cls-39" d="M663.74,335.65l-1.24-4.86c-14.79-.24-13.66,4.38-26.54,8.91s-13.6,7.16-16.46,17.89c-1.27,4.76-3.1,10.45-5,15.9.14.14-.69,1.11-.55,1.26a17.24,17.24,0,0,1-6.34,7.59c-8.11,5.76-24.2,3.29-33.77,7.36.3,3,.74,6.92,1,9.91,11,.17,20.24,2.59,41-.76,3.86.07,8.89-5.06,8.92-5.05.53.28.86,6.38,1.26,6.71.19,6.87.32,9.81.44,16.69,0,2.66-.45,7.29-.36,10,.08,2.45-1.51,11.45.37,13.38,1.05,1.07,7,.28,8.35.22,2.76-.12,17.76-2,20.46-2.56,17.5-3.86,19.83,2.45,28.08-.77-.49,0-3.86-26.42-2.48-36.4,1-4.27,2.38-7.86,3.34-12.64s2.13-27.68,2.13-27.68A29.76,29.76,0,0,0,663.74,335.65Z"/><path class="cls-40" d="M640.51,440.41s13.29,7.28,20.39,18.83,7.88,16.28,6,22.85-3.15,19.44,3.68,25.74-1,11,.27,17.34,10,7.61,10.24,18.91,0,14.44,2.63,16.55,4.19-4.29,4.19-4.29.78-25.55-1.59-37c-2.46-11.72-5.44-28.26-4.82-39.86.59-10.95,2.1-26.38,2.1-26.38l-.29-15.61S672,435.13,661,437.29C651.46,439.13,642.62,440,640.51,440.41Z"/><path class="cls-41" d="M646.21,337.05s-6.71,9.33,4.13,20.81,9.56,21.68,6.38,27.42-5.74,15.3-.64,19.76,1.92,19.76,10.2,19.76,15.16-5.1,15.16-5.1-1.44-13.95-.58-18.6,3.86-11.71,3.86-17.11,2-19.63,1.63-23.21-2.93-19.17-22.68-25.06l-1.24-4.86s-10.74-1-16,3.76Z"/><rect class="cls-42" x="398.5" y="284.94" width="22.7" height="18.19"/><rect class="cls-42" x="559.83" y="284.94" width="22.7" height="18.19"/><path class="cls-43" d="M535.87,325.69a1.8,1.8,0,0,1-2,1.82L396.53,314.87a2.23,2.23,0,0,1-2-2.18v-8.33a2,2,0,0,1,2-2H533.87a2,2,0,0,1,2,2Z"/><rect class="cls-2" x="532.2" y="298.69" width="14.33" height="32.5" rx="5"/><rect class="cls-3" x="548.2" y="15.69" width="42" height="567"/><rect class="cls-4" x="544.2" y="15.69" width="25" height="567"/><rect class="cls-2" x="394.54" y="302.36" width="23.33" height="12.33" rx="2"/><polygon class="cls-44" points="569.2 347.69 544.2 337.69 544.2 76.69 569.2 86.69 569.2 347.69"/><g class="cls-45"><path class="cls-46" d="M215.55,89.57a11,11,0,0,0-2.35.28,16,16,0,0,0-8.4,4.82l.73-.9a13.14,13.14,0,0,1,7.67-4.11v-.08s0,0,0,0Z"/><path class="cls-3" d="M234.2,89.58v56.83h-42V120.33c3.6-4.57,7.26-9.14,10.32-12.84C207.27,101.74,213,94.68,213,94.68l.17-.19a15.83,15.83,0,0,1,10.59-4.92h10.4S234.2,89.57,234.2,89.58Z"/><path class="cls-47" d="M213.2,89.66v.19a16,16,0,0,0-8.4,4.82l.73-.9A13.14,13.14,0,0,1,213.2,89.66Z"/><path class="cls-4" d="M213.2,94.49v51.92h-25v-21c1.3-1.67,2.65-3.38,4-5.09,3.6-4.57,7.26-9.14,10.32-12.84C207.27,101.74,213,94.68,213,94.68Z"/></g><rect class="cls-2" x="575.2" y="242.36" width="10" height="336" rx="3"/><g class="cls-48"><path class="cls-15" d="M583.2,310.36a2.17,2.17,0,0,1-.81,1.58L577,315.78c-.45.32-.82.13-.82-.42v-5.67a2.18,2.18,0,0,1,.82-1.58l5.37-3.84c.45-.32.81-.13.81.42Z"/><path class="cls-15" d="M583.2,326.36a2.17,2.17,0,0,1-.81,1.58L577,331.78c-.45.32-.82.13-.82-.42v-5.67a2.18,2.18,0,0,1,.82-1.58l5.37-3.84c.45-.32.81-.13.81.42Z"/><path class="cls-15" d="M583.2,342.36a2.17,2.17,0,0,1-.81,1.58L577,347.78c-.45.32-.82.13-.82-.42v-5.67a2.18,2.18,0,0,1,.82-1.58l5.37-3.84c.45-.32.81-.13.81.42Z"/><path class="cls-15" d="M583.2,358.36a2.17,2.17,0,0,1-.81,1.58L577,363.78c-.45.32-.82.13-.82-.42v-5.67a2.18,2.18,0,0,1,.82-1.58l5.37-3.84c.45-.32.81-.13.81.42Z"/><path class="cls-15" d="M583.2,374.36a2.17,2.17,0,0,1-.81,1.58L577,379.78c-.45.32-.82.13-.82-.42v-5.67a2.18,2.18,0,0,1,.82-1.58l5.37-3.84c.45-.32.81-.13.81.42Z"/><path class="cls-15" d="M583.2,390.36a2.17,2.17,0,0,1-.81,1.58L577,395.78c-.45.32-.82.13-.82-.42v-5.67a2.18,2.18,0,0,1,.82-1.58l5.37-3.84c.45-.32.81-.13.81.42Z"/><path class="cls-15" d="M583.2,406.36a2.17,2.17,0,0,1-.81,1.58L577,411.78c-.45.32-.82.13-.82-.42v-5.67a2.18,2.18,0,0,1,.82-1.58l5.37-3.84c.45-.32.81-.13.81.42Z"/><path class="cls-15" d="M583.2,422.36a2.17,2.17,0,0,1-.81,1.58L577,427.78c-.45.32-.82.13-.82-.42v-5.67a2.18,2.18,0,0,1,.82-1.58l5.37-3.84c.45-.32.81-.13.81.42Z"/><path class="cls-15" d="M583.2,438.36a2.17,2.17,0,0,1-.81,1.58L577,443.78c-.45.32-.82.13-.82-.42v-5.67a2.18,2.18,0,0,1,.82-1.58l5.37-3.84c.45-.32.81-.13.81.42Z"/><path class="cls-15" d="M583.2,454.36a2.17,2.17,0,0,1-.81,1.58L577,459.78c-.45.32-.82.13-.82-.42v-5.67a2.18,2.18,0,0,1,.82-1.58l5.37-3.84c.45-.32.81-.13.81.42Z"/><path class="cls-15" d="M583.2,470.36a2.17,2.17,0,0,1-.81,1.58L577,475.78c-.45.32-.82.13-.82-.42v-5.67a2.18,2.18,0,0,1,.82-1.58l5.37-3.84c.45-.32.81-.13.81.42Z"/><path class="cls-15" d="M583.2,486.36a2.17,2.17,0,0,1-.81,1.58L577,491.78c-.45.32-.82.13-.82-.42v-5.67a2.18,2.18,0,0,1,.82-1.58l5.37-3.84c.45-.32.81-.13.81.42Z"/><path class="cls-15" d="M583.2,502.36a2.17,2.17,0,0,1-.81,1.58L577,507.78c-.45.32-.82.13-.82-.42v-5.67a2.18,2.18,0,0,1,.82-1.58l5.37-3.84c.45-.32.81-.13.81.42Z"/><path class="cls-15" d="M583.2,518.36a2.17,2.17,0,0,1-.81,1.58L577,523.78c-.45.32-.82.13-.82-.42v-5.67a2.18,2.18,0,0,1,.82-1.58l5.37-3.84c.45-.32.81-.13.81.42Z"/><path class="cls-15" d="M583.2,534.36a2.17,2.17,0,0,1-.81,1.58L577,539.78c-.45.32-.82.13-.82-.42v-5.67a2.18,2.18,0,0,1,.82-1.58l5.37-3.84c.45-.32.81-.13.81.42Z"/><path class="cls-15" d="M583.2,550.36a2.17,2.17,0,0,1-.81,1.58L577,555.78c-.45.32-.82.13-.82-.42v-5.67a2.18,2.18,0,0,1,.82-1.58l5.37-3.84c.45-.32.81-.13.81.42Z"/><path class="cls-15" d="M583.2,566.36a2.17,2.17,0,0,1-.81,1.58L577,571.78c-.45.32-.82.13-.82-.42v-5.67a2.18,2.18,0,0,1,.82-1.58l5.37-3.84c.45-.32.81-.13.81.42Z"/></g><g class="cls-49"><path class="cls-23" d="M319.66,139.64a14,14,0,0,1-9.06,4H260.67c-3,0-3.81-1.83-1.85-4.07L296.7,96.42a13.71,13.71,0,0,1,9-4.08h49.92c3,0,3.81,1.84,1.85,4.08Z"/></g><polygon class="cls-3" points="564.2 582.69 589.2 582.69 649.2 597.69 522.2 597.69 564.2 582.69"/><polygon class="cls-46" points="544.87 583.36 647.54 597.02 647.54 605.69 484.87 605.69 484.87 598.36 544.87 583.36"/><polygon class="cls-50" points="569.2 582.69 544.2 582.69 484.85 597.19 509.32 597.19 569.2 582.69"/><rect class="cls-47" x="484.87" y="597.19" width="24.5" height="8.5"/><polygon class="cls-3" points="544.87 583.36 647.54 597.02 647.54 605.69 484.87 605.69 484.87 598.36 544.87 583.36"/><polygon class="cls-51" points="569.2 582.69 544.2 582.69 484.85 597.19 509.32 597.19 569.2 582.69"/><rect class="cls-4" x="484.87" y="597.19" width="24.5" height="8.5"/><polygon class="cls-3" points="208.2 582.69 233.2 582.69 293.2 597.69 166.2 597.69 208.2 582.69"/><polygon class="cls-3" points="188.87 583.36 291.54 597.02 291.54 605.69 128.87 605.69 128.87 598.36 188.87 583.36"/><polygon class="cls-51" points="213.2 582.69 188.2 582.69 128.85 597.19 153.32 597.19 213.2 582.69"/><rect class="cls-4" x="128.87" y="597.19" width="24.5" height="8.5"/><rect class="cls-4" x="198.2" width="373" height="15.69"/><rect class="cls-3" x="569.2" width="12" height="20.89"/><polygon class="cls-3" points="569.93 15.69 541.26 15.69 535.8 15.69 535.8 24.17 541.26 24.17 569.93 24.17 598.61 24.17 598.61 15.69 569.93 15.69"/><polygon class="cls-4" points="554.58 15.69 539.95 15.69 535.61 15.69 535.61 24.17 539.95 24.17 554.58 24.17 569.2 24.17 569.2 15.69 554.58 15.69"/><polygon class="cls-44" points="544.78 23.78 543.93 23.69 543.93 28.39 544.78 28.75 569.2 39.21 569.2 23.69 544.78 23.78"/><polygon class="cls-3" points="213.93 15.69 185.26 15.69 179.8 15.69 179.8 24.17 185.26 24.17 213.93 24.17 242.61 24.17 242.61 15.69 213.93 15.69"/><polygon class="cls-4" points="198.58 15.69 183.95 15.69 179.61 15.69 179.61 24.17 183.95 24.17 198.58 24.17 213.2 24.17 213.2 15.69 198.58 15.69"/><polygon class="cls-44" points="188.78 23.78 187.94 23.69 187.94 28.39 188.78 28.75 213.2 39.21 213.2 23.69 188.78 23.78"/><path class="cls-39" d="M79.06,563.63s6.68-36.82-29-56.42S12.62,487.82,5.6,485.57c-4.07-1.38-8.2,1.52-3.52,7.39s2.05,7.39,11.43,9.94,10.84,14,15.52,16.81,8.78,3.57,23.12,9.69c13,5.54,24.16,21.38,24.16,27S89,563.81,89,563.81Z"/><path class="cls-41" d="M77.74,558.48s9-33.9-22.28-52.09-42.15-18-48.3-20.17c-3.56-1.23,6.14,3.1,10.25,8.53S20.51,499,27.82,503c8.51,4.67,12.06,9.21,17,10.15,7.26,1.38,5.11,8.86,17.65,14.54,11.37,5.12,12.84,18.87,12.84,24.06s11.14,6.92,11.14,6.92Z"/><path class="cls-41" d="M109.15,553.44l3.5-3.34a13.71,13.71,0,0,1,6-3.28c11-2.89,45.69-13.85,60-40.15a.5.5,0,0,0-.23-.65l-.07,0h-.18c-4.77-.36-29.47-.68-62.36,27.58a9.54,9.54,0,0,0-1.59,1.65c-.83,1.15-2.21,3.1-2.8,4.15-.88,1.51.86,4-1.45,6.31s-7.24,7.81-7.24,7.81l4.06,3Z"/><path class="cls-41" d="M90.42,551.28S99.67,466.55,73.77,440c-23.87-24.41-24.16-1.88-24.06,1.9a1.88,1.88,0,0,0,.25.93,53,53,0,0,1,5.64,34.22c-2.4,12.25,15.09,10.61,16.61,22.68s7.7,30.66,7.1,39.23-.62,16.89-.62,16.89l9.55.26Z"/><path class="cls-52" d="M90.31,551.57a1.92,1.92,0,0,0,.16-.58c.57-5.54,8.32-85.35-16.68-111-23.69-24.3-24.11-2.09-24,1.86a1.89,1.89,0,0,0,.35,1C51.86,445.41,60,456.66,67,455.36c19.1-3.48,2.29,19.59,12.73,31.85C88,496.9,85.38,530.44,84.77,539a89.19,89.19,0,0,1-2.46,14.34,2.21,2.21,0,0,0,1.77,2.58l.16,0h2.19a2.54,2.54,0,0,0,2.43-1.38Z"/><path class="cls-41" d="M99.59,556.47s1.59-23.46,15.24-37.84a28.21,28.21,0,0,1,13.94-7.86c4.07-1,10.81-4.26,16.58-15.23,0,0,11-15.63,22-20.42s0-5.29,0-5.29-31.52,6.09-51.7,24.62a36.68,36.68,0,0,1-4.06,3.21c-5.25,3.61-19.7,17.17-19,56.62Z"/><path class="cls-6" d="M127,554.51s.46-2.85-3.28-2.77c-3.28.12-59-.15-59-.15s-2.58,0-2.42,2,8.75,48.32,9.55,49.29a2.77,2.77,0,0,0,1.61,1.17c1,.3,40.15-.44,40.15-.44a1.41,1.41,0,0,0,1.66-1.1,1.27,1.27,0,0,0,0-.28C115.2,602.31,127.12,555.05,127,554.51Z"/><path class="cls-17" d="M127,554.51s.46-2.77-3.28-2.77H112.31c.64.43,2.15,13.58,1.59,22.83a29.6,29.6,0,0,1-1.69,8.11c-2.23,6.3-7.35,20.56-8,21l9.26-.14a1.41,1.41,0,0,0,1.66-1.1,1.27,1.27,0,0,0,0-.28C115.2,602.31,127.12,555.05,127,554.51Z"/></g></g></g></svg>